<?xml version="1.0" encoding="iso-8859-1"?>
<!-- Generator: Adobe Illustrator 16.0.0, SVG Export Plug-In . SVG Version: 6.00 Build 0)  -->
<!DOCTYPE svg PUBLIC "-//W3C//DTD SVG 1.1//EN" "http://www.w3.org/Graphics/SVG/1.1/DTD/svg11.dtd">
<svg version="1.1" id="Capa_1" xmlns="http://www.w3.org/2000/svg" xmlns:xlink="http://www.w3.org/1999/xlink" x="0px" y="0px"
	 width="48.321px" height="48.32px" viewBox="0 0 48.321 48.32" style="enable-background:new 0 0 48.321 48.32;"
	 xml:space="preserve">
<g>
	<path d="M24.162,0C12.637,0,3.26,9.375,3.26,20.899c0,6.63,3.203,12.929,8.573,16.86l-0.771,9.888
		c-0.019,0.221,0.083,0.438,0.267,0.564c0.105,0.071,0.229,0.109,0.355,0.109c0.091,0,0.183-0.021,0.264-0.06l13.973-6.551
		C36.657,40.809,45.06,31.671,45.06,20.899C45.06,9.375,35.685,0,24.162,0z M25.711,40.473c-0.075,0.006-0.148,0.024-0.219,0.057
		l-13.102,6.146l0.716-9.169c0.017-0.219-0.084-0.433-0.264-0.56c-5.219-3.688-8.334-9.688-8.334-16.048
		c0-10.834,8.816-19.649,19.652-19.649c10.833,0,19.648,8.815,19.648,19.649C43.81,31.077,35.86,39.676,25.711,40.473z"/>
	<path d="M9.164,14.438c0,0.345,0.28,0.625,0.625,0.625h28.745c0.345,0,0.625-0.28,0.625-0.625s-0.28-0.625-0.625-0.625H9.789
		C9.444,13.813,9.164,14.093,9.164,14.438z"/>
	<path d="M35.776,19.662h-23.23c-0.345,0-0.625,0.28-0.625,0.625c0,0.345,0.28,0.625,0.625,0.625h23.23
		c0.344,0,0.625-0.28,0.625-0.625C36.401,19.942,36.12,19.662,35.776,19.662z"/>
	<path d="M35.776,25.512h-23.23c-0.345,0-0.625,0.28-0.625,0.625c0,0.346,0.28,0.625,0.625,0.625h23.23
		c0.344,0,0.625-0.279,0.625-0.625C36.401,25.792,36.12,25.512,35.776,25.512z"/>
</g>
<g>
</g>
<g>
</g>
<g>
</g>
<g>
</g>
<g>
</g>
<g>
</g>
<g>
</g>
<g>
</g>
<g>
</g>
<g>
</g>
<g>
</g>
<g>
</g>
<g>
</g>
<g>
</g>
<g>
</g>
</svg>
